<svg width="34" height="34" viewBox="0 0 34 34" fill="none" xmlns="http://www.w3.org/2000/svg">
<rect width="34" height="34" rx="6" fill="#EDEDED"/>
<path d="M11.7837 19.3833C12.0753 19.675 12.242 20.2583 12.1503 20.6667L11.717 22.5417C11.717 22.5417 11.0836 24.8333 12.0003 25.3767C12.917 25.92 13.3003 25.66 14.2253 25.1183L16.667 23.6683C17.0503 23.4433 17.6837 23.4433 18.067 23.6683L20.5087 25.1183C21.0587 25.4433 21.5587 25.6017 21.9837 25.6017C22.2513 25.6089 22.5142 25.5301 22.7337 25.3767C23.2503 25.0017 23.4003 24.2183 23.1587 23.1767L22.5837 20.6683C22.4837 20.26 22.6503 19.685 22.9503 19.385L24.967 17.36C25.6003 16.7267 25.8503 16.0517 25.667 15.4683C25.4753 14.885 24.8837 14.485 24.0003 14.335L23.1587 14.1933C22.6337 14.1017 20.9753 13.725 20.9753 13.725C20.7337 13.5833 20.5087 13.375 20.4003 13.1583L18.967 10.2833C18.5503 9.45833 17.9837 9 17.367 9C16.7503 9 16.1837 9.45833 15.767 10.2833L14.3337 13.1583C14.1587 13.5 13.7003 13.8333 13.3253 13.9L10.7253 14.3333C9.84199 14.4833 9.25032 14.8833 9.05866 15.4667C8.87532 16.05 9.12532 16.725 9.75866 17.3583L11.7837 19.3833Z" fill="#3F3F3F"/>
</svg>
